<svg width="42" height="42" viewBox="0 0 42 42" fill="none" xmlns="http://www.w3.org/2000/svg">
<path d="M21 0.166656C9.52085 0.166656 0.166687 9.52082 0.166687 21C0.166687 32.4792 9.52085 41.8333 21 41.8333C32.4792 41.8333 41.8334 32.4792 41.8334 21C41.8334 9.52082 32.4792 0.166656 21 0.166656ZM29.3334 22.5625H22.5625V29.3333C22.5625 30.1875 21.8542 30.8958 21 30.8958C20.1459 30.8958 19.4375 30.1875 19.4375 29.3333V22.5625H12.6667C11.8125 22.5625 11.1042 21.8542 11.1042 21C11.1042 20.1458 11.8125 19.4375 12.6667 19.4375H19.4375V12.6667C19.4375 11.8125 20.1459 11.1042 21 11.1042C21.8542 11.1042 22.5625 11.8125 22.5625 12.6667V19.4375H29.3334C30.1875 19.4375 30.8959 20.1458 30.8959 21C30.8959 21.8542 30.1875 22.5625 29.3334 22.5625Z" fill="black"/>
</svg>
