<svg width="40" height="40" viewBox="0 0 40 40" fill="none" xmlns="http://www.w3.org/2000/svg">
<path opacity="0.4" d="M36.6668 13.0161V23.1661L33.9502 20.8328C32.6502 19.7161 30.5502 19.7161 29.2502 20.8328L22.3168 26.7828C21.0168 27.8994 18.9168 27.8994 17.6168 26.7828L17.0502 26.3161C15.8668 25.2828 13.9835 25.1828 12.6502 26.0828L4.45016 31.5828L4.26683 31.7161C3.65016 30.3828 3.3335 28.7994 3.3335 26.9828V13.0161C3.3335 6.94943 6.95016 3.33276 13.0168 3.33276H26.9835C33.0502 3.33276 36.6668 6.94943 36.6668 13.0161Z" fill="#333638"/>
<path d="M14.9999 17.2998C17.1906 17.2998 18.9665 15.5239 18.9665 13.3331C18.9665 11.1424 17.1906 9.36646 14.9999 9.36646C12.8091 9.36646 11.0332 11.1424 11.0332 13.3331C11.0332 15.5239 12.8091 17.2998 14.9999 17.2998Z" fill="#333638"/>
<path d="M36.6666 23.1677V26.9843C36.6666 33.051 33.0499 36.6677 26.9833 36.6677H13.0166C8.7666 36.6677 5.69993 34.8843 4.2666 31.7177L4.44994 31.5843L12.6499 26.0843C13.9833 25.1843 15.8666 25.2843 17.0499 26.3177L17.6166 26.7843C18.9166 27.901 21.0166 27.901 22.3166 26.7843L29.2499 20.8343C30.5499 19.7177 32.6499 19.7177 33.9499 20.8343L36.6666 23.1677Z" fill="#333638"/>
</svg>
