<svg width="44" height="44" viewBox="0 0 44 44" fill="none" xmlns="http://www.w3.org/2000/svg">
<rect width="44" height="44" rx="22" fill="url(#paint0_linear_3_169)"/>
<path d="M21.3555 14.2656H22.6445C22.7591 14.2656 22.8164 14.3229 22.8164 14.4375V29.5625C22.8164 29.6771 22.7591 29.7344 22.6445 29.7344H21.3555C21.2409 29.7344 21.1836 29.6771 21.1836 29.5625V14.4375C21.1836 14.3229 21.2409 14.2656 21.3555 14.2656Z" fill="white"/>
<path d="M14.7812 21.1836H29.2188C29.3333 21.1836 29.3906 21.2409 29.3906 21.3555V22.6445C29.3906 22.7591 29.3333 22.8164 29.2188 22.8164H14.7812C14.6667 22.8164 14.6094 22.7591 14.6094 22.6445V21.3555C14.6094 21.2409 14.6667 21.1836 14.7812 21.1836Z" fill="white"/>
<defs>
<linearGradient id="paint0_linear_3_169" x1="22" y1="0" x2="22" y2="44" gradientUnits="userSpaceOnUse">
<stop stop-color="#7DC1FF"/>
<stop offset="1" stop-color="#278CEA"/>
</linearGradient>
</defs>
</svg>
