<svg width="18" height="14" viewBox="0 0 18 14" fill="none" xmlns="http://www.w3.org/2000/svg">
<path d="M17.25 6.99991C17.25 7.18225 17.1776 7.35712 17.0486 7.48605C16.9197 7.61498 16.7448 7.68741 16.5625 7.68741H3.0961L8.11485 12.6976C8.24395 12.8279 8.31637 13.004 8.31637 13.1874C8.31637 13.3709 8.24395 13.5469 8.11485 13.6773C7.98344 13.8043 7.8078 13.8753 7.62501 13.8753C7.44221 13.8753 7.26657 13.8043 7.13516 13.6773L0.947663 7.48976C0.818563 7.35941 0.74614 7.18337 0.74614 6.99991C0.74614 6.81645 0.818563 6.64041 0.947663 6.51007L7.13516 0.322569C7.26874 0.212938 7.43832 0.156912 7.61092 0.165389C7.78352 0.173866 7.94679 0.24624 8.06899 0.368432C8.19118 0.490625 8.26355 0.6539 8.27203 0.826499C8.28051 0.999097 8.22448 1.16868 8.11485 1.30226L3.0961 6.31241H16.5625C16.7448 6.31241 16.9197 6.38485 17.0486 6.51378C17.1776 6.64271 17.25 6.81758 17.25 6.99991Z" fill="#06122B"/>
</svg>
