<svg width="108" height="65" viewBox="0 0 108 65" fill="none" xmlns="http://www.w3.org/2000/svg">
<g clip-path="url(#clip0_335_17)">
<path d="M52.5 2H12.5C10.0147 2 8 4.01472 8 6.5C8 8.98528 10.0147 11 12.5 11H52.5C54.9853 11 57 8.98528 57 6.5C57 4.01472 54.9853 2 52.5 2Z" fill="#FF6169"/>
<path d="M43.5 11H5.5C2.46243 11 0 13.4624 0 16.5C0 19.5376 2.46243 22 5.5 22H43.5C46.5376 22 49 19.5376 49 16.5C49 13.4624 46.5376 11 43.5 11Z" fill="#FF6169"/>
<path d="M51 22H14C10.6863 22 8 24.6863 8 28C8 31.3137 10.6863 34 14 34H51C54.3137 34 57 31.3137 57 28C57 24.6863 54.3137 22 51 22Z" fill="#FF6169"/>
<path d="M101.5 29H44.5C40.9101 29 38 31.9101 38 35.5C38 39.0899 40.9101 42 44.5 42H101.5C105.09 42 108 39.0899 108 35.5C108 31.9101 105.09 29 101.5 29Z" fill="#FF6169"/>
<path d="M91 42H48C45.2386 42 43 44.2386 43 47C43 49.7614 45.2386 52 48 52H91C93.7614 52 96 49.7614 96 47C96 44.2386 93.7614 42 91 42Z" fill="#FF6169"/>
<path d="M17.5 44H7.5C5.567 44 4 45.567 4 47.5C4 49.433 5.567 51 7.5 51H17.5C19.433 51 21 49.433 21 47.5C21 45.567 19.433 44 17.5 44Z" fill="#FF6169"/>
<path d="M102.5 52H43.5C40.4624 52 38 54.4624 38 57.5C38 60.5376 40.4624 63 43.5 63H102.5C105.538 63 108 60.5376 108 57.5C108 54.4624 105.538 52 102.5 52Z" fill="#FF6169"/>
<path d="M83.5 5C84.8807 5 86 3.88071 86 2.5C86 1.11929 84.8807 0 83.5 0C82.1193 0 81 1.11929 81 2.5C81 3.88071 82.1193 5 83.5 5Z" fill="#CB030F"/>
<path d="M3 58C3.55228 58 4 57.5523 4 57C4 56.4477 3.55228 56 3 56C2.44772 56 2 56.4477 2 57C2 57.5523 2.44772 58 3 58Z" fill="#CB030F"/>
<path d="M11.5 62C12.8807 62 14 60.8807 14 59.5C14 58.1193 12.8807 57 11.5 57C10.1193 57 9 58.1193 9 59.5C9 60.8807 10.1193 62 11.5 62Z" fill="#FF6169"/>
<path d="M54.5 65C72.4493 65 87 50.4493 87 32.5C87 14.5507 72.4493 0 54.5 0C36.5507 0 22 14.5507 22 32.5C22 50.4493 36.5507 65 54.5 65Z" fill="#CB030F"/>
<path d="M56.7822 32.4L64.6254 24.9405C65.3385 24.2624 65.3385 23.1467 64.6254 22.4686C63.9124 21.7905 62.7394 21.7905 62.0263 22.4686L54.1831 29.9281L46.3398 22.4686C45.6268 21.7905 44.4537 21.7905 43.7407 22.4686C43.3842 22.8077 43.2002 23.2561 43.2002 23.7046C43.2002 24.153 43.3842 24.6014 43.7407 24.9405L51.584 32.4L43.7407 39.8595C43.3842 40.1986 43.2002 40.647 43.2002 41.0954C43.2002 41.5439 43.3842 41.9923 43.7407 42.3314C44.4537 43.0095 45.6268 43.0095 46.3398 42.3314L54.1831 34.8719L62.0263 42.3314C62.7394 43.0095 63.9124 43.0095 64.6254 42.3314C65.3385 41.6533 65.3385 40.5376 64.6254 39.8595L56.7822 32.4Z" fill="white"/>
</g>
<defs>
<clipPath id="clip0_335_17">
<rect width="108" height="65" fill="white"/>
</clipPath>
</defs>
</svg>
