<svg width="21" height="20" viewBox="0 0 21 20" fill="none" xmlns="http://www.w3.org/2000/svg">
<path d="M17.6831 7.24999C16.8165 3.39166 13.4498 1.66666 10.4998 1.66666C10.4998 1.66666 10.4998 1.66666 10.4915 1.66666C7.54979 1.66666 4.19146 3.39166 3.31646 7.24166C2.33313 11.5417 4.96646 15.1833 7.34979 17.4833C8.23313 18.3333 9.36646 18.7583 10.4998 18.7583C11.6331 18.7583 12.7665 18.3333 13.6415 17.4833C16.0248 15.1833 18.6581 11.55 17.6831 7.24999ZM13.2331 7.94166L9.89979 11.275C9.77479 11.4 9.61646 11.4583 9.45813 11.4583C9.29979 11.4583 9.14146 11.4 9.01646 11.275L7.76646 10.025C7.52479 9.78332 7.52479 9.38332 7.76646 9.14166C8.00813 8.89999 8.40812 8.89999 8.64979 9.14166L9.45813 9.94999L12.3498 7.05832C12.5915 6.81666 12.9915 6.81666 13.2331 7.05832C13.4748 7.29999 13.4748 7.69999 13.2331 7.94166Z" fill="#292D32"/>
</svg>
