<svg width="16" height="21" viewBox="0 0 16 21" fill="none" xmlns="http://www.w3.org/2000/svg">
<path d="M8.00002 15.5834C7.51379 15.5834 7.04747 15.3902 6.70366 15.0464C6.35984 14.7026 6.16669 14.2363 6.16669 13.75C6.16669 12.7325 6.98252 11.9167 8.00002 11.9167C8.48625 11.9167 8.95257 12.1098 9.29638 12.4537C9.6402 12.7975 9.83335 13.2638 9.83335 13.75C9.83335 14.2363 9.6402 14.7026 9.29638 15.0464C8.95257 15.3902 8.48625 15.5834 8.00002 15.5834ZM13.5 18.3334V9.16669H2.50002V18.3334H13.5ZM13.5 7.33335C13.9863 7.33335 14.4526 7.52651 14.7964 7.87033C15.1402 8.21414 15.3334 8.68046 15.3334 9.16669V18.3334C15.3334 18.8196 15.1402 19.2859 14.7964 19.6297C14.4526 19.9735 13.9863 20.1667 13.5 20.1667H2.50002C2.01379 20.1667 1.54747 19.9735 1.20366 19.6297C0.859841 19.2859 0.666687 18.8196 0.666687 18.3334V9.16669C0.666687 8.14919 1.48252 7.33335 2.50002 7.33335H3.41669V5.50002C3.41669 4.28444 3.89957 3.11866 4.75911 2.25911C5.61866 1.39957 6.78444 0.916687 8.00002 0.916687C8.60191 0.916687 9.19791 1.03524 9.75399 1.26557C10.3101 1.49591 10.8153 1.83351 11.2409 2.25911C11.6665 2.68472 12.0041 3.18998 12.2345 3.74605C12.4648 4.30213 12.5834 4.89813 12.5834 5.50002V7.33335H13.5ZM8.00002 2.75002C7.27068 2.75002 6.5712 3.03975 6.05548 3.55548C5.53975 4.0712 5.25002 4.77068 5.25002 5.50002V7.33335H10.75V5.50002C10.75 4.77068 10.4603 4.0712 9.94456 3.55548C9.42884 3.03975 8.72937 2.75002 8.00002 2.75002Z" fill="#818896"/>
</svg>
