<svg width="22" height="22" viewBox="0 0 22 22" fill="none" xmlns="http://www.w3.org/2000/svg">
<path d="M10.9141 13.4063C11.5523 13.4063 12.1643 13.1528 12.6156 12.7015C13.0668 12.2502 13.3203 11.6382 13.3203 11C13.3203 10.9296 13.3171 10.8597 13.3111 10.7908L10.7048 13.397C10.7738 13.4031 10.8434 13.4063 10.9141 13.4063ZM18.8788 3.55698L17.961 2.64002C17.9287 2.60781 17.885 2.58972 17.8395 2.58972C17.7939 2.58972 17.7502 2.60781 17.718 2.64002L15.3693 4.98934C14.0736 4.32719 12.6172 3.99612 11 3.99612C6.87071 3.99612 3.78985 6.14671 1.75742 10.4479C1.67573 10.6209 1.63336 10.8098 1.63336 11.0011C1.63336 11.1924 1.67573 11.3813 1.75742 11.5543C2.56953 13.2649 3.54743 14.636 4.69112 15.6675L2.41828 17.9395C2.38608 17.9717 2.36798 18.0154 2.36798 18.061C2.36798 18.1065 2.38608 18.1502 2.41828 18.1825L3.33545 19.0996C3.36768 19.1319 3.41138 19.1499 3.45695 19.1499C3.50251 19.1499 3.54621 19.1319 3.57844 19.0996L18.8788 3.80018C18.8948 3.78422 18.9074 3.76526 18.9161 3.7444C18.9247 3.72353 18.9292 3.70117 18.9292 3.67858C18.9292 3.65599 18.9247 3.63363 18.9161 3.61276C18.9074 3.5919 18.8948 3.57294 18.8788 3.55698ZM7.13282 11C7.13276 10.3469 7.30187 9.70492 7.62367 9.13659C7.94547 8.56826 8.40899 8.09297 8.96908 7.75702C9.52916 7.42107 10.1667 7.23593 10.8196 7.21961C11.4725 7.2033 12.1185 7.35638 12.6947 7.66393L11.6501 8.7085C11.2289 8.57361 10.7786 8.55737 10.3487 8.66155C9.9188 8.76573 9.52591 8.98631 9.21313 9.29909C8.90036 9.61187 8.67978 10.0048 8.5756 10.4346C8.47142 10.8645 8.48766 11.3148 8.62255 11.7361L7.57798 12.7807C7.28484 12.233 7.13191 11.6212 7.13282 11Z" fill="#67ACEB"/>
<path d="M20.2426 10.4457C19.4863 8.85299 18.5862 7.55425 17.5422 6.5495L14.4455 9.64648C14.7065 10.3289 14.7644 11.0722 14.612 11.7868C14.4597 12.5013 14.1038 13.1565 13.5872 13.6731C13.0705 14.1897 12.4154 14.5457 11.7008 14.698C10.9863 14.8503 10.2429 14.7924 9.56055 14.5314L6.93387 17.1581C8.15246 17.722 9.50784 18.0039 11 18.0039C15.1293 18.0039 18.2102 15.8533 20.2426 11.5521C20.3243 11.3792 20.3667 11.1902 20.3667 10.9989C20.3667 10.8076 20.3243 10.6187 20.2426 10.4457Z" fill="#67ACEB"/>
</svg>
