<svg width="108" height="65" viewBox="0 0 108 65" fill="none" xmlns="http://www.w3.org/2000/svg">
<rect x="8" y="2" width="49" height="9" rx="4.5" fill="#AFD9FF"/>
<rect y="11" width="49" height="11" rx="5.5" fill="#AFD9FF"/>
<rect x="8" y="22" width="49" height="12" rx="6" fill="#AFD9FF"/>
<rect x="38" y="29" width="70" height="13" rx="6.5" fill="#AFD9FF"/>
<rect x="43" y="42" width="53" height="10" rx="5" fill="#AFD9FF"/>
<rect x="4" y="44" width="17" height="7" rx="3.5" fill="#AFD9FF"/>
<rect x="38" y="52" width="70" height="11" rx="5.5" fill="#AFD9FF"/>
<circle cx="83.5" cy="2.5" r="2.5" fill="#2B8FEB"/>
<circle cx="3" cy="57" r="1" fill="#2B8FEB"/>
<circle cx="11.5" cy="59.5" r="2.5" fill="#AFD9FF"/>
<circle cx="54.5" cy="32.5" r="32.5" fill="#2B8FEB"/>
<path d="M63.472 24.94C63.6085 24.8007 63.7714 24.6901 63.9512 24.6146C64.131 24.539 64.324 24.5001 64.519 24.5001C64.714 24.5001 64.9071 24.539 65.0868 24.6146C65.2666 24.6901 65.4295 24.8007 65.566 24.94C66.138 25.518 66.146 26.452 65.586 27.04L53.76 41.02C53.6258 41.1674 53.4628 41.2859 53.2812 41.3683C53.0995 41.4506 52.903 41.4949 52.7036 41.4987C52.5043 41.5024 52.3062 41.4655 52.1216 41.39C51.937 41.3146 51.7697 41.2023 51.63 41.06L44.434 33.768C44.1565 33.485 44.001 33.1044 44.001 32.708C44.001 32.3116 44.1565 31.931 44.434 31.648C44.5705 31.5087 44.7334 31.3981 44.9132 31.3226C45.093 31.247 45.286 31.2081 45.481 31.2081C45.676 31.2081 45.8691 31.247 46.0488 31.3226C46.2286 31.3981 46.3915 31.5087 46.528 31.648L52.632 37.834L63.432 24.984C63.4445 24.9685 63.4578 24.9539 63.472 24.94Z" fill="white"/>
</svg>