<svg width="360" height="334" viewBox="0 0 360 334" fill="none" xmlns="http://www.w3.org/2000/svg">
<mask id="mask0_5_4986" style="mask-type:alpha" maskUnits="userSpaceOnUse" x="0" y="0" width="360" height="326">
<path d="M0 0H360V273.135C280.901 343.622 79.0986 343.622 0 273.135V0Z" fill="#4A9BE6"/>
</mask>
<g mask="url(#mask0_5_4986)">
<path d="M0 0H360V273.135C280.901 343.622 79.0986 343.622 0 273.135V0Z" fill="#4A9BE6"/>
<rect x="53" y="231" width="54" height="126" rx="5" fill="#88C1F4"/>
<rect x="57" y="238" width="11" height="13" rx="1" fill="#2B8FEB"/>
<rect x="72" y="238" width="11" height="13" rx="1" fill="#2B8FEB"/>
<rect x="72" y="256" width="11" height="13" rx="1" fill="#2B8FEB"/>
<rect x="57" y="256" width="11" height="13" rx="1" fill="#2B8FEB"/>
<rect x="72" y="272" width="11" height="13" rx="1" fill="#2B8FEB"/>
<rect x="87" y="238" width="11" height="13" rx="1" fill="#2B8FEB"/>
<g filter="url(#filter0_i_5_4986)">
<path d="M206.58 319.897C203.38 326.297 210.247 338.23 214.08 343.397H224.08C226.247 339.23 230.78 328.697 231.58 319.897C232.58 308.897 214.08 312.897 214.08 301.397C214.08 289.897 214.08 290.897 200.58 280.897C187.08 270.897 185.58 289.397 186.08 296.897C186.58 304.397 210.58 311.897 206.58 319.897Z" fill="#FF434D"/>
</g>
<path d="M170.958 319.72C164.45 319.961 164.889 328.755 165.921 333.123C168.098 335.47 172.723 339.7 173.81 337.841C175.169 335.516 173.805 327.729 180.751 325.228C187.615 322.757 190.421 317.705 194.491 310.378L194.637 310.115C198.787 302.646 208.978 312.258 216.396 313.367C223.813 314.475 227.321 307.922 229.64 299.169C231.959 290.415 217.522 292.302 216.783 297.247C216.044 302.192 208.234 307.091 204.374 302.47C200.515 297.849 184.594 299.514 183.633 305.942C182.673 312.371 179.091 319.419 170.958 319.72Z" fill="#93E1DD"/>
<path d="M209.205 320.886C199.486 314.884 199.98 314.958 194.199 323.194C191.035 324.069 184.618 326.413 184.263 328.786C183.82 331.753 191.09 333.851 200.088 331.152C209.086 328.452 213.144 335.125 216.531 336.137C219.919 337.149 237.221 329.624 240.359 325.543C243.497 321.462 242.946 308.235 237.382 304.876C231.817 301.516 231.203 309.008 226.905 317.465C222.608 325.923 218.925 326.889 209.205 320.886Z" fill="#93E1DD"/>
<path d="M155.536 331.571C155.936 339.719 165.332 340.449 169.979 339.796C166.387 341.281 157.61 343.407 151.239 340.028C143.276 335.805 148.096 333.997 142.679 329.649C137.263 325.3 138.024 316.82 133.671 312.125C129.317 307.43 147.784 305.64 156.56 304.424C165.337 303.208 155.037 321.385 155.536 331.571Z" fill="#93E1DD"/>
<path d="M38.8681 256.351C52.7014 253.253 58.0927 266.272 59.0591 273.169C55.9983 274.866 38.3651 281.216 32.4897 279.901C26.6144 278.585 19.8203 271.49 20.9409 266.295C22.0616 261.099 21.5765 260.225 38.8681 256.351Z" fill="#1ED6CB"/>
<rect x="27.9441" y="253.262" width="4" height="8.94253" rx="2" transform="rotate(4.55959 27.9441 253.262)" fill="#4A9BE5"/>
<rect x="44.6902" y="252.808" width="4" height="8.94253" rx="2" transform="rotate(28.1272 44.6902 252.808)" fill="#4A9BE5"/>
<rect x="26.5702" y="273.464" width="4" height="8.94253" rx="2" transform="rotate(4.55959 26.5702 273.464)" fill="#4A9BE5"/>
<rect x="43.3162" y="273.01" width="4" height="8.94253" rx="2" transform="rotate(28.1272 43.3162 273.01)" fill="#4A9BE5"/>
<path d="M58.0292 272.914C53.3648 269.832 42.6236 264.023 36.9736 265.436C31.3235 266.849 24.8136 264.371 22.2649 262.956" stroke="#06122B" stroke-width="1.2" stroke-linecap="round"/>
<path d="M84.5 325C81.8333 311 72.8 281 58 273" stroke="#06122B" stroke-width="1.2" stroke-linecap="round"/>
<path d="M42.0431 280.998C50.9103 277.402 55.9432 285.473 57.3513 289.958C55.5015 291.427 44.4645 297.61 40.4067 297.385C36.3489 297.161 31.0386 293.19 31.2088 289.606C31.379 286.023 30.9591 285.494 42.0431 280.998Z" fill="#93E1DD"/>
<rect x="34.4271" y="280.152" width="2.7" height="6.03621" rx="1.35" transform="rotate(-4.89281 34.4271 280.152)" fill="#4A9BE5"/>
<rect x="45.5269" y="277.994" width="2.7" height="6.03621" rx="1.35" transform="rotate(18.6748 45.5269 277.994)" fill="#4A9BE5"/>
<rect x="35.7518" y="293.756" width="2.7" height="6.03621" rx="1.35" transform="rotate(-4.89281 35.7518 293.756)" fill="#4A9BE5"/>
<rect x="46.8515" y="291.597" width="2.7" height="6.03621" rx="1.35" transform="rotate(18.6748 46.8515 291.597)" fill="#4A9BE5"/>
<path d="M56.6373 289.902C53.19 288.368 45.3942 285.69 41.7888 287.258C38.1834 288.825 33.5742 287.896 31.7202 287.236" stroke="#06122B" stroke-width="0.81" stroke-linecap="round"/>
<path d="M80.0365 321.648C76.709 312.622 67.3686 293.648 56.6274 289.962" stroke="#06122B" stroke-width="0.81" stroke-linecap="round"/>
<path d="M286.819 265.372C273.452 270.092 275.796 283.987 278.639 290.344C282.134 290.157 300.448 286.175 304.728 281.94C309.008 277.706 310.998 268.086 307.29 264.279C303.581 260.471 303.528 259.472 286.819 265.372Z" fill="#FF7C45"/>
<rect width="4" height="8.94253" rx="2" transform="matrix(-0.802485 0.596673 0.596673 0.802485 294.435 256.954)" fill="#4A9BE5"/>
<rect width="4" height="8.94253" rx="2" transform="matrix(-0.49698 0.867762 0.867762 0.49698 280.004 265.461)" fill="#4A9BE5"/>
<rect width="4" height="8.94253" rx="2" transform="matrix(-0.802485 0.596673 0.596673 0.802485 306.327 273.343)" fill="#4A9BE5"/>
<rect width="4" height="8.94253" rx="2" transform="matrix(-0.49698 0.867762 0.867762 0.49698 291.895 281.85)" fill="#4A9BE5"/>
<path d="M279.377 289.581C281.693 284.493 287.71 273.867 293.248 272.065C298.787 270.262 302.987 264.705 304.395 262.152" stroke="#06122B" stroke-width="1.2" stroke-linecap="round"/>
<path d="M284.603 347.773C279.429 334.494 271.154 304.276 279.447 289.638" stroke="#06122B" stroke-width="1.2" stroke-linecap="round"/>
<path d="M297.216 287.944C287.792 289.604 287.813 299.116 289.001 303.664C291.349 303.927 303.985 303.306 307.304 300.961C310.623 298.616 313.014 292.431 310.967 289.485C308.92 286.539 308.995 285.868 297.216 287.944Z" fill="#FFB89A"/>
<rect width="2.7" height="6.03621" rx="1.35" transform="matrix(-0.889579 0.456781 0.456781 0.889579 303.22 283.183)" fill="#4A9BE5"/>
<rect width="2.7" height="6.03621" rx="1.35" transform="matrix(-0.632743 0.774362 0.774362 0.632743 292.668 287.248)" fill="#4A9BE5"/>
<rect width="2.7" height="6.03621" rx="1.35" transform="matrix(-0.889579 0.456781 0.456781 0.889579 309.321 295.413)" fill="#4A9BE5"/>
<rect width="2.7" height="6.03621" rx="1.35" transform="matrix(-0.632743 0.774362 0.774362 0.632743 298.769 299.478)" fill="#4A9BE5"/>
<path d="M289.577 303.238C291.683 300.107 296.868 293.699 300.755 293.112C304.642 292.526 308.055 289.292 309.276 287.748" stroke="#06122B" stroke-width="0.81" stroke-linecap="round"/>
<path d="M286.606 342.564C284.633 333.148 282.473 312.111 289.617 303.284" stroke="#06122B" stroke-width="0.81" stroke-linecap="round"/>
<path d="M256.979 222.028C255.953 216.674 254.31 212.687 247.635 217.471C247.635 217.471 247.577 212.168 245.215 210.074C242.853 207.98 227.932 198.65 227.361 213.984C227.361 213.984 227.088 226.303 227.088 229.378C227.088 232.454 231.411 242.873 235.005 242.873C235.858 242.858 236.705 242.722 237.522 242.468C237.002 246.722 235.701 250.836 233.69 254.591L255.767 250.154C255.767 250.154 251.952 244.034 251.156 232.013C254.521 228.931 257.731 225.947 256.979 222.028Z" fill="#FFB7B6"/>
<path d="M264.928 186.089C254.532 186.089 254.472 196.141 254.472 196.141L256.12 199.137C243.904 190.019 236.91 198.305 236.91 198.305C227.088 196.12 222.1 202.712 221.354 210.572C220.607 218.431 227.203 221.619 227.203 221.619L227.316 216.092C230.597 214.211 229.958 212.046 230.356 210.949C231.517 216.502 240.9 219.004 242.801 220.774C244.82 222.653 245.041 226.839 246.203 226.839C247.364 226.839 246.724 220.656 250.351 218.553C254.983 215.866 256.264 221.405 255.412 224.276C254.472 227.445 250.895 231.238 250.895 231.238L251.342 236.449C258.567 231.801 263.943 221.242 263.12 211.865L263.12 211.866C271.425 211.633 274.578 208.586 277.058 203.431C279.679 197.983 275.325 186.089 264.928 186.089Z" fill="#161B36"/>
<path d="M263.206 205.197C260.38 199.046 255.684 196.269 254.472 196.141C252.936 195.979 252.391 196.781 252.391 196.781L252.391 196.782C253.831 197.533 255.203 198.414 256.491 199.416C261.377 203.173 263.311 208.608 263.2 214.248C263.593 214.038 263.967 213.791 264.317 213.512C264.837 213.08 266.032 211.348 263.206 205.197Z" fill="#F76161"/>
<g style="mix-blend-mode:overlay" opacity="0.6">
<path d="M237.55 242.135C237.55 242.135 244.07 238.681 246.14 236.449C246.256 240.153 245.017 243.768 242.668 246.575C240.818 248.72 237.923 249.343 235.892 249.485C236.715 247.108 237.271 244.642 237.55 242.135Z" fill="#030F1C"/>
</g>
<path d="M235.682 215.793C235.977 215.45 236.384 215.184 237.603 215.26C238.823 215.336 240.671 216.516 240.264 216.82C239.858 217.125 238.638 216.097 237.677 216.44C236.716 216.782 236.165 217.064 235.842 216.877C235.435 216.643 235.539 215.958 235.682 215.793Z" fill="#161B36"/>
<path d="M230.397 215.444C230.009 215.218 229.541 215.101 228.411 215.578C227.28 216.056 225.901 217.786 226.382 217.939C226.862 218.092 227.694 216.715 228.711 216.719C229.727 216.724 230.338 216.807 230.585 216.523C230.896 216.166 230.583 215.552 230.397 215.444Z" fill="#161B36"/>
<g style="mix-blend-mode:overlay" opacity="0.6">
<path d="M232.502 230.862C232.01 230.871 231.524 230.742 231.097 230.492C230.79 230.323 230.572 230.023 230.502 229.673C230.399 229.012 230.975 227.719 231.573 226.45C231.67 226.245 231.749 226.077 231.795 225.968C232.567 224.142 232.216 220.661 232.213 220.626C232.204 220.546 232.238 220.468 232.301 220.421C232.364 220.373 232.446 220.364 232.518 220.397C232.589 220.429 232.638 220.498 232.646 220.578C232.661 220.725 233.013 224.211 232.195 226.148C232.147 226.26 232.065 226.434 231.965 226.646C231.601 227.419 230.843 229.026 230.932 229.602C230.987 229.821 231.13 230.005 231.325 230.109C231.904 230.431 232.583 230.501 233.213 230.306C233.327 230.268 233.45 230.333 233.487 230.451C233.524 230.569 233.461 230.695 233.346 230.733C233.073 230.821 232.788 230.864 232.502 230.862Z" fill="#030F1C"/>
</g>
<path d="M231.662 235.277C231.624 235.142 231.641 234.997 231.707 234.874C231.774 234.751 231.885 234.661 232.017 234.623C232.671 234.428 233.876 234.062 234.795 233.74C235.752 233.349 236.683 232.893 237.582 232.375C237.738 232.287 237.928 232.289 238.083 232.379C238.238 232.469 238.337 232.636 238.345 232.819C238.407 234.228 238.242 236.979 236.091 237.54C233.474 238.222 232.104 236.765 231.662 235.277Z" fill="#161B36"/>
<path d="M232.8 237.033C232.8 237.033 235.051 233.795 238.267 234.535C238.267 234.535 238.272 237.064 236.199 237.634C233.966 238.247 232.8 237.033 232.8 237.033Z" fill="#E55151"/>
<path d="M238.672 220.175C238.254 220.079 237.828 220.026 237.4 220.017C236.941 220.017 236.568 220.647 236.568 221.425C236.568 222.202 236.941 222.833 237.4 222.833C237.859 222.833 238.232 222.202 238.232 221.425C238.238 221.083 238.157 220.746 237.997 220.447C238.331 220.458 238.662 220.51 238.984 220.602C239.296 220.695 239.318 220.33 238.672 220.175Z" fill="#161B36"/>
<path d="M230.363 220.76C229.976 220.671 229.583 220.619 229.188 220.605C229.183 220.604 229.178 220.602 229.173 220.602C229.169 220.602 229.166 220.604 229.162 220.604C229.12 220.603 229.09 220.602 229.09 220.602L229.086 220.617C228.668 220.691 228.341 221.283 228.341 222.01C228.341 222.788 228.713 223.418 229.173 223.418C229.632 223.418 230.004 222.788 230.004 222.01C230.01 221.67 229.93 221.335 229.771 221.036C230.077 221.053 230.38 221.103 230.674 221.187C230.986 221.28 231.008 220.915 230.363 220.76Z" fill="#161B36"/>
<path d="M248.451 209.475C248.359 209.475 248.277 209.415 248.246 209.327C245.89 202.63 239.06 199.634 238.991 199.604C238.919 199.574 238.868 199.506 238.858 199.426C238.848 199.346 238.88 199.267 238.942 199.218C239.004 199.17 239.087 199.159 239.159 199.19C239.23 199.22 246.235 202.293 248.656 209.174C248.697 209.29 248.638 209.419 248.525 209.461C248.501 209.47 248.476 209.474 248.451 209.475Z" fill="white"/>
<path d="M272.18 206.066C272.093 206.066 272.014 206.013 271.98 205.93C271.945 205.848 271.961 205.753 272.021 205.688C276.606 200.644 273.61 194.286 273.58 194.222C273.526 194.111 273.57 193.977 273.677 193.922C273.785 193.866 273.916 193.911 273.97 194.022C274.002 194.088 277.129 200.725 272.339 205.995C272.298 206.04 272.24 206.066 272.18 206.066Z" fill="white"/>
<path d="M253.252 220.797C252.203 220.43 251.188 221.412 250.419 222.523L250.415 222.529C249.887 223.316 249.434 224.154 249.064 225.032C249.017 225.147 249.069 225.278 249.18 225.326C249.291 225.374 249.419 225.321 249.466 225.206C249.811 224.38 250.234 223.591 250.728 222.85C251.177 222.768 251.64 222.855 252.032 223.095C252.424 223.394 252.674 223.85 252.721 224.35C252.738 224.458 252.829 224.538 252.936 224.538C252.948 224.538 252.96 224.537 252.971 224.535C253.028 224.525 253.079 224.493 253.113 224.444C253.147 224.396 253.16 224.336 253.151 224.277C253.087 223.653 252.768 223.087 252.274 222.721C251.916 222.487 251.498 222.367 251.075 222.376C251.71 221.565 252.435 220.986 253.112 221.222C253.226 221.261 253.349 221.199 253.388 221.081C253.426 220.964 253.366 220.837 253.252 220.797H253.252Z" fill="#0B122D"/>
<path d="M237.198 242.526C237.095 242.526 237.006 242.452 236.985 242.348C236.963 242.244 237.016 242.139 237.11 242.096C237.183 242.063 244.488 238.698 247.571 234.63C247.619 234.567 247.696 234.535 247.773 234.546C247.85 234.557 247.916 234.61 247.945 234.684C247.974 234.759 247.963 234.843 247.915 234.906C244.764 239.063 237.59 242.368 237.286 242.507C237.259 242.519 237.229 242.526 237.198 242.526Z" fill="#0B122D"/>
<path d="M221.258 324.154C216.28 363.344 213.579 395.359 213.439 400.837C213.299 406.284 216.435 498.519 216.435 498.519C216.435 498.519 224.771 499.377 228.423 497.488C228.423 497.488 231.216 465.136 232.505 454.037C233.794 442.939 237.082 419.034 237.082 408.342C240.347 393.771 243.068 376.252 243.068 376.252C243.068 376.252 245.029 388.797 247.722 405.845C253.413 441.876 262.371 498.023 262.984 498.373C263.655 498.757 268.659 499.615 274.056 497.621C274.056 497.621 273.242 480.958 273.457 471.512C273.671 462.066 273.146 423.769 269.924 407.239C269.924 407.239 271.446 392.378 273.448 381.33C274.719 374.322 276.473 362.945 274.926 352.419C272.961 339.044 269.324 335.798 267.077 323.088C253.493 317.038 235.418 316.64 221.258 324.154Z" fill="#201F20"/>
<path d="M271.518 338.562C268.094 338.562 265.38 337.476 263.451 335.336C259.824 331.31 260.236 325.048 260.255 324.783C260.259 324.724 260.286 324.668 260.33 324.629C260.374 324.591 260.431 324.571 260.489 324.576C260.609 324.586 260.699 324.693 260.69 324.817C260.686 324.88 260.275 331.153 263.773 335.032C265.615 337.076 268.221 338.113 271.518 338.113C271.638 338.113 271.736 338.214 271.736 338.338C271.736 338.461 271.638 338.562 271.518 338.562Z" fill="#0B122D"/>
<g style="mix-blend-mode:overlay" opacity="0.6">
<path d="M221.258 324.154L220.404 330.988C220.404 330.988 237.887 341.269 270.337 335.971C270.337 335.971 267.523 327.307 267.077 323.087L221.258 324.154Z" fill="#030F1C"/>
</g>
<path fill-rule="evenodd" clip-rule="evenodd" d="M280.336 272.29C282.063 277.104 284.228 283.14 287.188 290.756C290.198 298.502 289.462 304.847 280.374 306.73C278.373 307.144 272.06 308.346 265.185 309.564C265.715 314.181 266.51 318.762 267.565 323.283C267.781 324.218 267.417 325.195 266.65 325.742C259.289 330.844 229.126 333.014 221.61 326.93C220.828 326.282 220.443 325.254 220.6 324.234C222.647 310.22 221.728 300.98 220.197 296.992C219.968 296.396 219.741 295.834 219.522 295.293C218.583 292.97 217.791 291.011 217.624 288.233C213.566 293.831 207.291 301.419 201.89 301.343C197.681 301.284 192.804 298.059 183.525 282.732C183.308 282.374 182.731 281.431 181.954 280.162C179.243 275.731 174.095 267.318 173.304 265.863C177.014 266.239 180.499 263.974 181.764 260.364L190.978 272.607L201.335 284.632C201.571 284.908 201.93 285.039 202.283 284.977C202.635 284.916 202.932 284.671 203.067 284.329C204.791 279.996 206.757 275.768 208.954 271.668C210.838 268.09 213.039 264.699 215.527 261.537C218.48 257.928 222.326 255.21 226.658 253.671C226.698 253.655 235.73 250.496 235.73 250.496C235.73 250.496 232.064 263.558 240.575 263.013C252.303 262.262 255.432 249.009 255.432 249.009C255.432 249.009 262.071 250.798 265.402 251.914C273.759 253.958 274.767 256.768 280.336 272.29ZM264.808 298.022C267.453 297.047 271.029 295.679 272.855 294.977C273.16 294.86 273.405 294.618 273.531 294.308C273.657 293.998 273.652 293.649 273.519 293.343C272.392 290.758 269.609 284.386 267.138 278.839C266.895 282.522 266.441 286.188 265.779 289.816C265.257 292.523 264.933 295.266 264.808 298.022Z" fill="#3268AE"/>
<path fill-rule="evenodd" clip-rule="evenodd" d="M255.431 249.009L262.938 251.131C262.938 251.131 264.383 259.541 251.77 261.181C252.859 266.199 244.845 273.717 237.894 262.839C230.212 271.394 228.034 261.24 231.474 258.465C227.69 255.16 228.578 253.005 228.578 253.005L235.73 250.496C232.993 260.798 237.894 262.839 237.894 262.839C237.894 262.839 237.894 262.839 237.894 262.839C237.922 262.844 250.614 265.288 255.431 249.009Z" fill="#FCC92C"/>
<g style="mix-blend-mode:overlay" opacity="0.6">
<path d="M201.582 290.267C198.34 286.705 187.532 274.419 190.978 272.606L201.334 284.631C201.571 284.907 201.929 285.038 202.282 284.977C202.635 284.915 202.933 284.67 203.068 284.329C204.792 279.995 206.757 275.767 208.955 271.666C210.378 274.627 207.82 282.913 203.207 290.121C203.032 290.395 202.746 290.571 202.429 290.6C202.112 290.628 201.8 290.506 201.582 290.267Z" fill="white"/>
</g>
<path d="M200.498 290.874C200.428 290.874 200.366 290.831 200.339 290.766C200.311 290.7 200.325 290.624 200.374 290.572C202.407 288.413 202.101 285.443 202.097 285.413C202.086 285.316 202.154 285.227 202.249 285.216C202.344 285.205 202.43 285.275 202.441 285.372C202.599 287.37 201.94 289.345 200.622 290.82C200.589 290.855 200.544 290.874 200.498 290.874Z" fill="#0B122D"/>
<g style="mix-blend-mode:overlay" opacity="0.6">
<path d="M217.668 285.273C217.869 282.861 219.046 278.166 220.296 271.933C219.869 272.332 219.463 272.753 219.08 273.196C213.488 279.647 217.704 285.732 215.222 289.402C210.282 296.704 209.21 292.592 204.958 296.616C203.711 297.797 203.194 299.278 203.122 301.219C206.677 300.899 213.555 294.423 217.75 289.539C217.562 288.125 217.535 286.694 217.668 285.273Z" fill="#030F1C"/>
</g>
<g style="mix-blend-mode:overlay" opacity="0.6">
<path d="M218.97 293.907C218.97 293.907 222.668 297.419 226.475 297.492C229.075 297.541 229.629 298.993 226.947 299.586C225.703 299.862 223.391 299.64 220.932 299.571C220.436 297.629 219.78 295.734 218.97 293.907V293.907Z" fill="#030F1C"/>
</g>
<g style="mix-blend-mode:overlay" opacity="0.6">
<path d="M265.18 309.565C263.824 309.805 262.447 310.046 261.076 310.281C261.372 312.245 261.41 314.02 261.163 315.068C259.569 321.848 252.609 326.494 248.695 327.455C246.266 328.076 243.968 329.149 241.916 330.623C241.916 330.623 258.943 330.533 266.65 325.743C266.65 325.743 267.968 325.174 267.565 323.283C266.397 318.788 265.599 314.199 265.18 309.565V309.565Z" fill="#030F1C"/>
</g>
<g style="mix-blend-mode:overlay" opacity="0.6">
<path d="M255.108 300.252C255.61 300.244 256.106 300.372 256.546 300.621C258.933 299.96 261.149 299.316 262.493 298.855C263.083 298.653 263.91 298.353 264.85 298.007C264.871 297.33 264.897 296.646 264.933 295.947C265.173 291.303 266.53 288.094 267.189 278.953C265.592 275.37 264.123 272.124 263.302 270.436C263.514 274.971 263.77 284.84 262.323 289.816C261.018 294.305 255.83 296.596 252.319 297.216C246.955 298.164 247.661 300.434 255.108 300.252Z" fill="#030F1C"/>
</g>
<path d="M237.428 281.006H237.421C237.301 281.002 237.206 280.899 237.209 280.775L237.712 263.132C237.723 263.011 237.819 262.918 237.936 262.914C238.057 262.918 238.151 263.021 238.148 263.145L237.645 280.788C237.642 280.909 237.545 281.005 237.428 281.006Z" fill="#0B122D"/>
<path d="M249.532 312.33C249.438 312.333 249.358 312.26 249.35 312.164C249.341 312.068 249.406 311.982 249.499 311.967L261.063 310.114C261.126 310.104 261.189 310.129 261.229 310.18C261.269 310.23 261.279 310.299 261.256 310.36C261.233 310.421 261.18 310.465 261.118 310.475L249.553 312.327C249.546 312.329 249.539 312.329 249.532 312.33Z" fill="#0B122D"/>
<g style="mix-blend-mode:overlay" opacity="0.6">
<path d="M276.749 296.728C272.639 298.421 260.729 303.819 258.771 300.012C264.969 298.221 272.855 294.977 272.855 294.977C273.154 294.877 273.397 294.65 273.524 294.354C273.65 294.057 273.646 293.718 273.515 293.424C272.598 291.491 271.059 287.509 268.304 281.538C269.236 281.155 271.174 281.535 271.784 282.695C272.49 284.045 276.041 291.248 277.547 294.153C277.885 294.805 277.837 296.28 276.749 296.728Z" fill="white"/>
</g>
<path d="M277.433 297.699C277.347 297.699 277.273 297.634 277.259 297.547C277.239 297.427 276.747 294.613 273.509 294.517C273.411 294.514 273.334 294.43 273.337 294.33C273.34 294.229 273.421 294.15 273.519 294.152C275.483 294.109 277.2 295.509 277.608 297.487C277.624 297.587 277.559 297.68 277.462 297.697C277.453 297.698 277.443 297.699 277.433 297.699Z" fill="#0B122D"/>
<path d="M267.88 278.658C267.844 278.658 267.809 278.646 267.779 278.625C262.713 275.003 262.697 267.119 262.697 267.04C262.698 266.94 262.777 266.859 262.874 266.859H262.875C262.973 266.859 263.052 266.942 263.052 267.042C263.051 267.12 263.07 274.814 267.981 278.326C268.045 278.371 268.072 278.454 268.049 278.53C268.026 278.606 267.957 278.658 267.88 278.658V278.658Z" fill="#0B122D"/>
<g style="mix-blend-mode:overlay" opacity="0.6">
<path d="M215.676 261.337C215.676 261.337 223.49 256.37 232.448 254.534L232.238 251.721C228.535 253.241 221.487 254.293 215.676 261.337Z" fill="white"/>
</g>
<path d="M247.207 317.146L233.598 293.365L229.876 286.86C229.58 286.342 229.04 286.025 228.457 286.025H206.402C205.749 286.103 205.169 286.49 204.835 287.073C204.763 287.178 204.696 287.288 204.637 287.402C204.544 287.573 204.468 287.753 204.411 287.94C204.411 287.944 204.407 287.944 204.407 287.948C204.229 288.388 204.243 288.887 204.446 289.316L204.422 289.268C204.432 289.297 204.444 289.325 204.457 289.352L204.469 289.368C204.473 289.372 204.473 289.376 204.477 289.38C204.487 289.405 204.499 289.429 204.512 289.452L216.636 310.641L218.835 314.477L221.843 319.739C222.139 320.256 222.679 320.574 223.262 320.573H245.317C245.398 320.573 245.479 320.566 245.559 320.553C246.833 320.549 247.854 318.278 247.207 317.146Z" fill="#36C9D8"/>
<g style="mix-blend-mode:overlay" opacity="0.6">
<path d="M204.334 289.017C204.32 288.958 204.309 288.899 204.301 288.84C204.308 288.899 204.319 288.958 204.334 289.017Z" fill="#030F1C"/>
<path d="M204.421 289.267C204.434 289.295 204.443 289.324 204.458 289.35L204.477 289.382C204.457 289.344 204.438 289.306 204.421 289.267Z" fill="#030F1C"/>
<path d="M204.402 289.225C204.375 289.157 204.353 289.088 204.334 289.018C204.351 289.089 204.374 289.158 204.402 289.225Z" fill="#030F1C"/>
<path d="M245.559 320.553C246.1 320.471 246.567 320.116 246.803 319.608C247.039 319.099 247.014 318.503 246.736 318.017L232.861 293.774L229.404 287.731C229.109 287.213 228.569 286.896 227.986 286.896H205.931C205.265 286.893 204.663 287.305 204.411 287.94C204.468 287.753 204.544 287.573 204.637 287.402C204.695 287.288 204.762 287.178 204.835 287.073C205.169 286.49 205.749 286.103 206.402 286.025H228.457C229.04 286.025 229.58 286.342 229.876 286.86L233.598 293.365L247.207 317.146C247.854 318.278 246.833 320.549 245.559 320.553Z" fill="#030F1C"/>
</g>
<g style="mix-blend-mode:overlay" opacity="0.6">
<path d="M205.729 288.456H207.256C207.355 288.456 207.447 288.51 207.498 288.599L207.871 289.256C207.921 289.345 207.922 289.456 207.872 289.545C207.822 289.635 207.729 289.69 207.629 289.69H206.102C206.003 289.69 205.911 289.636 205.86 289.547L205.487 288.89C205.437 288.801 205.436 288.691 205.486 288.601C205.536 288.511 205.629 288.456 205.729 288.456Z" fill="#030F1C"/>
</g>
<g style="mix-blend-mode:overlay" opacity="0.6">
<path d="M220.775 299.259H222.777C223.366 299.283 223.918 299.566 224.291 300.036C225.151 301.083 224.753 302.398 223.575 302.398H221.573C220.984 302.374 220.433 302.091 220.06 301.62C219.199 300.574 219.598 299.259 220.775 299.259Z" fill="#030F1C"/>
</g>
<path fill-rule="evenodd" clip-rule="evenodd" d="M179.195 251.837C179.195 251.837 179.015 248.122 177.914 247.088C177.217 246.478 176.273 246.26 175.39 246.507C175.39 246.507 175.302 246.3 175.172 245.99C175.06 245.722 174.912 245.38 174.76 245.031L174.76 245.031C174.489 244.405 174.208 243.755 174.105 243.465C172.656 239.346 170.13 234.051 168.871 234.487C167.88 234.83 168.693 237.176 170.672 242.88L170.672 242.88C170.928 243.619 171.204 244.414 171.498 245.268C171.332 244.962 170.444 243.832 168.717 244.527C167.502 245.012 168.35 247.148 168.35 247.148C168.35 247.148 166.631 246.372 165.797 247.27C164.888 248.254 165.689 249.923 165.75 250.035C165.654 249.988 164.049 249.205 163.406 250.723C163.151 251.327 163.795 253.088 165.034 255.162C165.189 255.419 165.351 255.679 165.522 255.944C165.561 256.003 165.598 256.06 165.637 256.122L165.64 256.124C165.954 256.603 166.298 257.091 166.664 257.58L166.667 257.58C166.774 257.722 166.877 257.859 166.977 257.993L166.978 257.994C168.82 260.456 169.707 261.64 172.56 262.692C172.56 262.692 173.252 264.005 174.257 265.883C177.322 265.849 180.101 264.021 181.419 261.171C180.869 260.245 180.378 259.283 179.947 258.292C179.947 258.292 179.703 255.984 179.195 251.837ZM245.643 304.104L245.648 304.135C245.135 304.22 244.612 304.229 244.096 304.161C243.899 304.094 243.648 304.034 243.367 303.966C242.652 303.793 241.746 303.574 241.048 303.089C240.519 302.722 239.344 301.194 238.317 299.857L238.316 299.857C237.457 298.738 236.699 297.753 236.509 297.693C236.09 297.561 234.865 299.523 235.761 300.923C236.043 301.363 236.343 301.782 236.615 302.161C237.207 302.987 237.664 303.624 237.495 303.877C237.315 304.148 236.41 304.27 235.559 304.384C235.412 304.404 235.266 304.423 235.127 304.443C233.211 304.66 228.802 305.187 228.373 305.482C227.824 305.86 227.562 306.881 228.604 307.119C229.138 307.241 228.393 307.593 227.762 307.891L227.762 307.891C227.502 308.014 227.261 308.128 227.138 308.212C226.589 308.59 226.327 309.611 227.37 309.849C228.176 310.033 229.461 310.334 229.106 310.579C228.556 310.957 228.295 311.978 229.337 312.215C229.509 312.254 229.746 312.3 230.002 312.348C230.78 312.496 231.727 312.676 231.516 312.822C231.024 313.16 230.79 314.073 231.722 314.286C232.306 314.419 235.43 314.029 237.686 313.718C239.052 313.997 242.843 313.62 244.36 312.635C245.282 312.109 246.274 311.725 247.303 311.493C247.689 308.922 247.24 306.292 246.026 304.011C245.798 304.069 245.664 304.101 245.643 304.104ZM239.386 263.026C231.882 262.761 235.548 251.236 235.548 251.236L255.432 249.009C254.121 257.849 247.21 263.303 239.386 263.026Z" fill="#FFB7B6"/>
<path d="M235.462 306.649C235.458 306.605 235.437 306.566 235.405 306.538C235.372 306.51 235.331 306.497 235.289 306.502L228.344 307.193C228.259 307.201 228.196 307.278 228.201 307.366C228.207 307.454 228.28 307.521 228.365 307.518L228.375 307.517L235.319 306.827C235.361 306.822 235.4 306.801 235.426 306.768C235.453 306.735 235.466 306.692 235.462 306.649Z" fill="#0B122D"/>
<path d="M235.894 309.655C235.882 309.566 235.803 309.503 235.717 309.514L228.662 310.434C228.578 310.445 228.517 310.522 228.524 310.609C228.531 310.696 228.603 310.762 228.688 310.759L228.702 310.757L235.756 309.838C235.798 309.832 235.836 309.81 235.862 309.776C235.888 309.742 235.899 309.698 235.894 309.655Z" fill="#0B122D"/>
<path d="M237.003 312.043L231.076 312.676C230.991 312.685 230.928 312.762 230.934 312.85C230.94 312.938 231.013 313.005 231.098 313.001L231.108 313.001L237.035 312.368C237.122 312.359 237.186 312.278 237.177 312.189C237.167 312.1 237.09 312.035 237.003 312.043Z" fill="#0B122D"/>
<path d="M173.603 251.144C173.507 251.146 173.431 251.227 173.433 251.326C173.441 251.788 173.384 252.368 173.071 252.504C172.621 252.7 171.692 251.99 171.213 251.495C171.159 251.439 171.076 251.426 171.009 251.463C170.942 251.5 170.906 251.577 170.921 251.654C171.107 252.645 170.999 253.305 170.601 253.616C169.794 254.247 168.021 253.35 168.003 253.341C167.977 253.328 167.949 253.322 167.92 253.324C167.493 252.571 166.759 251.373 166.437 250.65C166.397 250.561 166.295 250.522 166.208 250.563C166.121 250.604 166.083 250.709 166.123 250.799C166.47 251.578 167.291 252.905 167.704 253.649C167.718 253.672 167.737 253.692 167.76 253.706C167.79 254.353 167.664 254.811 167.366 255.049C166.869 255.448 166.046 255.153 166.038 255.149C165.948 255.116 165.849 255.164 165.817 255.257C165.784 255.349 165.831 255.451 165.921 255.484C166.166 255.569 166.422 255.612 166.68 255.614C167.002 255.626 167.317 255.526 167.577 255.332C167.991 254.937 168.192 254.359 168.117 253.783C168.689 254.03 170.037 254.503 170.81 253.9C171.242 253.562 171.418 252.954 171.333 252.089C171.806 252.499 172.626 253.084 173.205 252.832C173.6 252.66 173.793 252.151 173.779 251.319C173.779 251.272 173.76 251.226 173.727 251.193C173.694 251.16 173.649 251.143 173.603 251.144Z" fill="#030F1C"/>
<path d="M175.362 250.414C174.128 250.618 170.766 250.972 170.032 250.167C169.914 250.041 169.871 249.858 169.92 249.689C170.317 247.879 175.012 246.784 175.059 246.773C175.119 246.76 175.168 246.714 175.187 246.653C175.205 246.592 175.191 246.526 175.149 246.479C175.107 246.432 175.044 246.412 174.984 246.426C174.792 246.47 170.482 247.477 169.68 249.322L168.791 247.734C168.745 247.649 168.641 247.617 168.557 247.664C168.473 247.711 168.442 247.819 168.488 247.905L169.558 249.815L169.56 249.817C169.553 250.038 169.632 250.252 169.78 250.411C170.219 250.892 171.28 251.032 172.368 251.032C173.389 251.018 174.408 250.93 175.417 250.766C175.511 250.75 175.575 250.659 175.56 250.562C175.545 250.465 175.456 250.399 175.362 250.414H175.362Z" fill="#030F1C"/>
<path d="M99.0833 212.872C99.0833 206.071 106.638 208.239 107.924 208.665C109.209 209.091 112.209 199.291 112.209 199.291C112.209 199.291 127.638 198.013 130.638 200.995C130.638 200.995 131.495 213.778 131.067 221.874C130.638 229.97 128.022 233.371 125.022 233.371C124.073 233.318 123.14 233.101 122.266 232.731V247.635L104.119 238.283L106.354 220.678C106.262 220.624 106.209 220.596 106.209 220.596C106.209 220.596 99.0834 219.296 99.0833 212.872Z" fill="#F7B17D"/>
<path d="M131.187 210.416C131.187 210.416 134.924 206.961 135.352 199.717C135.781 192.473 134.238 184.817 129.677 185.1C125.117 185.384 119.321 185.652 114.76 185.093C110.2 184.533 99.8434 186.989 99.0833 194.924C96.6487 198.611 95.5126 202.996 95.8529 207.394C96.423 214.762 98.891 224.483 106.589 226.664L106.946 220.831C106.946 220.831 99.0833 214.207 101.555 211.079C104.727 207.065 109.155 210.7 109.63 213.439C109.63 213.439 111.044 212.019 111.245 206.827C111.245 206.827 115.045 204.087 115.14 200.309C115.14 200.309 127.302 199.081 129.867 201.159L131.187 210.416Z" fill="#161B36"/>
<g style="mix-blend-mode:overlay" opacity="0.6">
<path d="M122.252 232.709C122.252 232.709 116.076 229.853 114.081 227.775C114.081 227.775 114.542 233.378 118.62 237.316C122.699 241.254 122.252 238.071 122.252 238.071L122.252 232.709Z" fill="#030F1C"/>
</g>
<ellipse cx="0.80166" cy="1.31068" rx="0.80166" ry="1.31068" transform="matrix(-1 0 0 1 122.253 209.455)" fill="#161B36"/>
<ellipse cx="0.80166" cy="1.31068" rx="0.80166" ry="1.31068" transform="matrix(-1 0 0 1 130.185 210)" fill="#161B36"/>
<path d="M123.108 205.523C122.823 205.204 122.431 204.956 121.255 205.027C120.079 205.098 118.298 206.196 118.69 206.48C119.082 206.763 120.258 205.807 121.184 206.125C122.11 206.444 122.642 206.706 122.953 206.533C123.345 206.314 123.245 205.677 123.108 205.523Z" fill="#161B36"/>
<path d="M128.203 205.198C128.576 204.988 129.028 204.879 130.118 205.323C131.207 205.768 132.537 207.379 132.074 207.521C131.611 207.664 130.809 206.381 129.828 206.386C128.848 206.39 128.26 206.467 128.021 206.203C127.721 205.871 128.024 205.299 128.203 205.198Z" fill="#161B36"/>
<g style="mix-blend-mode:overlay" opacity="0.6">
<path d="M126.464 219.607C126.878 219.622 127.288 219.528 127.652 219.333C127.891 219.2 128.058 218.967 128.106 218.699C128.195 218.144 127.624 217.284 126.925 216.301C126.747 216.066 126.584 215.82 126.437 215.565C126.295 215.262 126.336 212.503 126.457 210.011L126.029 209.99C125.987 210.854 125.79 215.194 126.049 215.745C126.205 216.024 126.381 216.292 126.575 216.546C127.015 217.166 127.751 218.203 127.683 218.632C127.654 218.778 127.56 218.902 127.428 218.97C126.812 219.233 126.12 219.254 125.489 219.03L125.358 219.435C125.716 219.549 126.089 219.607 126.464 219.607Z" fill="#030F1C"/>
</g>
<path d="M126.983 223.661C127.019 223.535 127.004 223.4 126.939 223.286C126.875 223.171 126.768 223.087 126.641 223.052C126.011 222.871 124.848 222.529 123.963 222.23C123.04 221.866 122.142 221.441 121.276 220.959C121.125 220.877 120.942 220.879 120.793 220.963C120.643 221.047 120.548 221.202 120.54 221.373C120.48 222.684 120.639 225.246 122.713 225.768C125.236 226.403 126.557 225.046 126.983 223.661Z" fill="#161B36"/>
<path d="M125.886 225.296C125.886 225.296 123.716 222.281 120.615 222.97C120.615 222.97 120.61 225.324 122.609 225.855C124.761 226.426 125.886 225.296 125.886 225.296Z" fill="#E55151"/>
<path d="M103.813 211.419C105.864 210.726 107.775 215.174 107.856 215.364C107.902 215.472 107.85 215.597 107.741 215.643C107.632 215.689 107.506 215.638 107.461 215.529C107.128 214.761 106.721 214.027 106.245 213.338C105.813 213.263 105.368 213.344 104.99 213.567C104.615 213.845 104.375 214.268 104.33 214.731C104.313 214.834 104.224 214.909 104.119 214.909C104.107 214.909 104.096 214.908 104.084 214.906C104.028 214.897 103.978 214.866 103.945 214.82C103.912 214.774 103.898 214.717 103.908 214.662C103.982 213.631 104.867 212.846 105.905 212.889C105.294 212.138 104.598 211.603 103.95 211.823C103.878 211.847 103.798 211.831 103.74 211.781C103.682 211.731 103.656 211.654 103.671 211.579C103.686 211.505 103.74 211.443 103.813 211.419H103.813Z" fill="#0B122D"/>
<path d="M122.266 232.945C122.367 232.945 122.455 232.875 122.476 232.776C122.497 232.678 122.446 232.578 122.353 232.537C122.282 232.506 115.241 229.374 112.269 225.588C112.196 225.496 112.061 225.479 111.968 225.551C111.875 225.624 111.858 225.758 111.931 225.85C114.97 229.721 121.886 232.798 122.179 232.927C122.207 232.939 122.236 232.945 122.266 232.945Z" fill="#0B122D"/>
<path d="M113.193 197.594C113.23 197.594 113.267 197.584 113.299 197.565C116.848 195.535 116.327 190.576 116.303 190.366C116.298 190.31 116.27 190.258 116.225 190.222C116.18 190.187 116.123 190.171 116.066 190.179C115.949 190.192 115.864 190.297 115.877 190.414C115.883 190.463 116.389 195.306 113.086 197.196C113.001 197.244 112.96 197.342 112.985 197.436C113.011 197.529 113.096 197.594 113.193 197.594L113.193 197.594Z" fill="white"/>
<path d="M106.369 203.356C106.425 203.356 106.478 203.335 106.517 203.297C110.148 199.849 108.712 194.265 108.697 194.209C108.666 194.095 108.549 194.027 108.435 194.057C108.32 194.088 108.252 194.204 108.282 194.318C108.297 194.372 109.667 199.717 106.222 202.989C106.158 203.049 106.138 203.142 106.171 203.222C106.203 203.303 106.282 203.356 106.37 203.356H106.369Z" fill="white"/>
<rect width="13.4832" height="24.5167" rx="2.86665" transform="matrix(-0.980287 -0.197578 -0.199786 0.97984 212.76 247.133)" fill="#36C9D8"/>
<g style="mix-blend-mode:overlay" opacity="0.6">
<path d="M195.835 266.678L199.929 246.6C200.064 245.939 200.712 245.512 201.377 245.646L203.342 246.042L203.324 246.132C203.291 246.295 203.324 246.464 203.417 246.603C203.509 246.741 203.653 246.838 203.817 246.871L207.882 247.69C208.046 247.723 208.216 247.69 208.356 247.598C208.495 247.507 208.592 247.363 208.625 247.2L208.644 247.11L210.609 247.506C211.274 247.64 211.703 248.285 211.569 248.946L207.475 269.024C207.41 269.342 207.221 269.62 206.95 269.799C206.678 269.978 206.346 270.043 206.027 269.978L196.796 268.118C196.476 268.054 196.196 267.866 196.016 267.596C195.836 267.326 195.771 266.996 195.835 266.678Z" fill="white"/>
</g>
<path fill-rule="evenodd" clip-rule="evenodd" d="M66.9842 274.889C65.4484 278.812 63.7173 283.234 61.7259 288.225C58.1711 297.135 64.1331 305.882 76.3421 304.678C79.1158 304.404 81.8491 304.107 84.68 303.744C84.8919 308.296 84.8496 312.833 82.762 320.723C81.5779 325.485 80.9396 330.365 80.8592 335.27C80.8592 335.27 131.113 343.677 141.382 335.27C143.515 333.524 142.469 329.339 141.519 325.538C141.051 323.663 140.606 321.882 140.576 320.532C140.494 316.745 140.317 313.143 140.15 309.732C140.034 307.362 139.922 305.083 139.85 302.899C141.16 304.949 142.572 306.932 144.082 308.84C148.522 314.455 151.876 316.474 158.014 313.238C165.406 309.341 175.678 299.584 197.91 277.543C193.955 276.268 191.995 272.832 191.624 268.624L173.511 280.103L157.051 290.216C156.674 290.448 156.202 290.471 155.804 290.276C155.406 290.08 155.138 289.694 155.096 289.255C154.551 283.674 153.682 278.13 152.494 272.65C149.957 261.19 146.296 250.897 136.941 246.229C131.985 243.473 125.328 240.523 125.328 240.523L116.872 242.602L102.712 239.39C102.712 239.39 92.5137 241.532 88.0741 242.895C78.461 245.572 76.3786 250.892 66.9842 274.889ZM83.8778 284.624L83.961 286.768L82.7859 286.823C83.1733 286.037 83.4934 285.388 83.8778 284.624Z" fill="#FF6C2F"/>
<path fill-rule="evenodd" clip-rule="evenodd" d="M104.668 232.116L102.714 239.389L114.116 248.174C114.116 248.174 114.686 244.679 116.871 242.601L121.812 248.174L125.327 240.523L122.192 236.839C122.192 236.839 120.528 240.946 116.871 242.601C111.395 241.163 106.892 237.294 104.668 232.116ZM99.0085 269.317H113.118V271.618H99.0085V269.317Z" fill="#06122B"/>
<path d="M135.588 327.548C135.626 327.548 135.663 327.538 135.695 327.519C139.434 325.374 140.73 320.783 140.783 320.589C140.804 320.516 140.783 320.437 140.729 320.383C140.675 320.329 140.596 320.307 140.522 320.327C140.448 320.346 140.39 320.403 140.37 320.477C140.357 320.523 139.065 325.095 135.481 327.15C135.397 327.199 135.356 327.297 135.381 327.39C135.407 327.483 135.491 327.548 135.588 327.548Z" fill="#0B122D"/>
<path d="M141.306 276.515C141.412 276.515 141.502 276.438 141.518 276.334C142.946 266.9 142.268 260.076 142.261 260.008C142.248 259.892 142.144 259.807 142.026 259.818C141.97 259.823 141.918 259.851 141.882 259.895C141.846 259.939 141.829 259.995 141.835 260.051C141.842 260.119 142.514 266.893 141.094 276.27C141.086 276.326 141.1 276.383 141.133 276.429C141.167 276.474 141.218 276.504 141.274 276.513C141.285 276.514 141.295 276.515 141.306 276.515Z" fill="#0B122D"/>
<g style="mix-blend-mode:overlay" opacity="0.6">
<path d="M118.131 262.533C118.131 262.898 118.429 263.194 118.796 263.193C119.164 263.193 119.461 262.897 119.461 262.532C119.461 262.167 119.163 261.871 118.796 261.871C118.62 261.871 118.45 261.941 118.326 262.065C118.201 262.189 118.131 262.357 118.131 262.533Z" fill="#030F1C"/>
</g>
<g style="mix-blend-mode:overlay" opacity="0.6">
<path d="M117.664 275.64C117.664 275.908 117.826 276.149 118.074 276.252C118.323 276.354 118.609 276.298 118.799 276.109C118.99 275.92 119.047 275.635 118.944 275.388C118.841 275.141 118.598 274.98 118.329 274.979C117.962 274.98 117.664 275.275 117.664 275.64Z" fill="#030F1C"/>
</g>
<g style="mix-blend-mode:overlay" opacity="0.6">
<path d="M116.325 303.494C116.325 303.761 116.487 304.002 116.736 304.105C116.984 304.207 117.27 304.151 117.46 303.962C117.651 303.773 117.708 303.489 117.605 303.242C117.502 302.994 117.26 302.833 116.991 302.833C116.624 302.833 116.326 303.129 116.325 303.494Z" fill="#030F1C"/>
</g>
<g style="mix-blend-mode:overlay" opacity="0.6">
<path d="M116.99 322.431C116.99 322.699 117.152 322.94 117.401 323.043C117.649 323.145 117.936 323.089 118.126 322.9C118.316 322.711 118.373 322.426 118.27 322.179C118.167 321.932 117.925 321.77 117.656 321.771C117.288 321.771 116.991 322.066 116.99 322.431Z" fill="#030F1C"/>
</g>
<g style="mix-blend-mode:overlay" opacity="0.6">
<path d="M121.812 248.174L113.118 243.782L116.871 242.601L121.812 248.174Z" fill="#030F1C"/>
</g>
<path d="M119.174 285.115C119.798 275.026 120.473 261.024 120.281 257.586C120.013 252.807 116.701 242.992 116.668 242.894C116.643 242.822 116.658 242.741 116.709 242.684C116.76 242.626 116.837 242.6 116.913 242.615C116.988 242.63 117.05 242.685 117.074 242.758C117.107 242.857 120.438 252.726 120.708 257.563C120.901 261.004 120.228 274.993 119.604 285.094L119.174 285.115Z" fill="#0B122D"/>
<path d="M118.79 297.024C118.706 301.294 119.001 309.25 119.288 316.992C119.629 326.171 119.981 335.664 119.697 338.971C119.688 339.082 119.595 339.166 119.484 339.167C119.478 339.167 119.472 339.166 119.466 339.166C119.348 339.156 119.26 339.053 119.27 338.936C119.551 335.654 119.2 326.174 118.86 317.007C118.575 309.335 118.283 301.452 118.36 297.131C118.503 297.095 118.646 297.06 118.79 297.024Z" fill="#0B122D"/>
<g style="mix-blend-mode:overlay" opacity="0.6">
<path d="M83.8878 283.961C84.5903 282.577 85.5616 280.7 87.3767 277.228C87.5309 276.934 87.6853 276.635 87.8439 276.337C87.9981 276.043 88.1567 275.745 88.3152 275.447C89.8938 272.457 91.6245 269.24 93.4407 265.955C94.0784 272.749 93.8713 279.594 92.8242 286.338L83.9435 286.754C83.9198 285.749 83.9016 284.812 83.8878 283.961Z" fill="#030F1C"/>
</g>
<g style="mix-blend-mode:overlay" opacity="0.6">
<path d="M84.6713 303.703C86.131 303.514 87.6194 303.306 89.1527 303.076C88.206 314.82 94.0202 323.31 99.0085 328.562C104.15 333.976 114.781 335.27 122.413 339.007C107.798 339.804 80.8616 335.27 80.8616 335.27C80.8616 335.27 80.2724 328.235 83.4351 317.985C84.5396 314.405 84.832 309.58 84.6713 303.703Z" fill="#030F1C"/>
</g>
<g style="mix-blend-mode:overlay" opacity="0.6">
<path d="M114.116 248.174L95.7201 240.946L102.714 239.389L114.116 248.174Z" fill="#030F1C"/>
</g>
<g style="mix-blend-mode:overlay" opacity="0.6">
<path d="M139.771 297.578C139.796 294.616 140.182 289.614 140.666 283.925C140.852 281.74 141.052 279.454 141.25 277.144C141.795 278.175 142.25 279.251 142.609 280.36C145.376 288.938 142.508 294.065 142.635 298.608C142.735 302.15 150.243 307.334 146.725 312.15C144.905 310.236 143.757 308.84 143.757 308.84C142.341 307.05 141.051 305.242 139.869 303.426C139.796 301.397 139.754 299.445 139.771 297.578Z" fill="#030F1C"/>
</g>
<g style="mix-blend-mode:overlay" opacity="0.6">
<path d="M158.047 294.661C158.951 294.22 168.843 288.895 172.692 285.392C174.829 283.447 174.507 281.044 173.519 280.103L157.058 290.216C156.681 290.448 156.21 290.471 155.812 290.276C155.414 290.08 155.146 289.694 155.103 289.255C154.559 283.674 153.69 278.13 152.501 272.65C151.076 273.245 149.509 274.662 149.936 278.629C150.405 282.977 150.459 291.307 152.169 294.074C152.605 294.779 154.7 296.294 158.047 294.661Z" fill="white"/>
</g>
<path d="M155.215 298.228C155.29 298.228 155.359 298.19 155.398 298.126C155.437 298.062 155.44 297.983 155.405 297.917C153.739 294.72 155.131 291.424 155.145 291.392C155.176 291.322 155.167 291.24 155.122 291.179C155.076 291.117 155 291.085 154.924 291.094C154.847 291.103 154.782 291.152 154.752 291.223C154.69 291.364 153.262 294.733 155.024 298.113C155.061 298.184 155.135 298.228 155.215 298.228Z" fill="#0B122D"/>
<g style="mix-blend-mode:overlay" opacity="0.60001">
<path d="M144.049 251.912C144.049 251.912 139.25 248.312 134.191 247.107C130.891 246.285 127.671 245.171 124.571 243.778L126.039 240.847C126.039 240.847 136.946 245.667 139.984 248.076C141.477 249.201 142.841 250.488 144.049 251.912" fill="white"/>
</g>
<path d="M88.2537 273.936C88.2974 273.936 88.34 273.922 88.3759 273.898C94.504 269.667 94.5232 260.459 94.5228 260.367C94.5221 260.249 94.4264 260.155 94.3085 260.155H94.3073C94.189 260.156 94.0938 260.252 94.0943 260.369C94.0947 260.459 94.0725 269.447 88.1315 273.547C88.0544 273.6 88.021 273.697 88.049 273.786C88.077 273.875 88.16 273.936 88.2537 273.936Z" fill="#0B122D"/>
<path d="M101.616 286.138L101.626 286.138L124.27 285.073C124.327 285.07 124.381 285.045 124.419 285.004C124.457 284.962 124.477 284.907 124.474 284.85C124.473 284.793 124.448 284.74 124.406 284.701C124.364 284.663 124.307 284.644 124.25 284.647L101.606 285.712C101.489 285.718 101.399 285.814 101.402 285.93C101.404 286.046 101.499 286.138 101.616 286.138V286.138Z" fill="#0B122D"/>
<path d="M100.834 301.23C100.851 301.23 100.867 301.228 100.884 301.225L125.954 295.345C126.069 295.317 126.14 295.203 126.112 295.089C126.085 294.975 125.97 294.904 125.855 294.93L100.785 300.81C100.679 300.835 100.609 300.935 100.621 301.042C100.634 301.149 100.726 301.23 100.834 301.23Z" fill="#0B122D"/>
<path d="M77.3574 291.109C77.4621 291.108 77.5512 291.033 77.5683 290.93C77.5918 290.79 78.1877 287.504 82.1043 287.392C82.2226 287.388 82.3157 287.29 82.3123 287.173C82.3021 287.058 82.2073 286.969 82.0918 286.966C77.8153 287.088 77.1519 290.824 77.1456 290.861C77.1364 290.917 77.1498 290.974 77.1829 291.02C77.2161 291.066 77.2662 291.097 77.3222 291.106C77.3339 291.108 77.3456 291.108 77.3574 291.109Z" fill="#0B122D"/>
<g style="mix-blend-mode:overlay" opacity="0.6">
<path d="M92.0148 289.8C96.896 289.198 98.0052 287.639 98.0052 286.095L82.461 286.823C83.5881 284.535 88.6695 274.775 88.8281 274.477C87.3614 274.01 85.4918 275.301 83.9268 277.756C82.0978 280.625 76.9791 287.604 79.0737 289.599C80.2789 290.747 89.2495 290.141 92.0148 289.8Z" fill="white"/>
</g>
<path fill-rule="evenodd" clip-rule="evenodd" d="M194.231 262.169C194.394 260.294 193.778 257.664 193.348 255.828C193.093 254.738 192.903 253.928 192.981 253.723C193.19 253.171 196.243 253.434 196.956 255.505C197.035 255.738 197.099 255.975 197.147 256.215L194.888 267.294C194.824 267.612 194.888 267.942 195.068 268.212C195.249 268.482 195.529 268.67 195.848 268.734L206.018 270.783C204.698 272.333 203.082 273.988 201.23 274.646C199.847 275.138 198.341 276.226 197.124 277.248C193.821 275.843 192.104 272.777 191.673 269.052C192.537 268.176 193.299 267.333 193.432 266.959C193.846 265.39 194.113 263.786 194.231 262.169ZM209.516 260.143C208.979 260.193 208.457 259.948 208.155 259.504C207.853 259.06 207.817 258.487 208.063 258.01C208.309 257.533 208.796 257.226 209.335 257.211L211.157 257.099C211.519 257.077 211.873 257.215 212.123 257.476C212.374 257.737 212.495 258.095 212.455 258.454L212.411 258.855C212.348 259.421 211.899 259.869 211.33 259.935L209.516 260.143ZM209.367 261.07C208.663 260.998 208.004 261.425 207.787 262.095C207.638 262.556 207.724 263.062 208.018 263.448C208.312 263.835 208.777 264.055 209.265 264.038L210.69 264.025C211.193 264.02 211.626 263.67 211.734 263.182L211.885 262.498C211.952 262.195 211.884 261.879 211.699 261.63C211.514 261.38 211.23 261.223 210.919 261.197L209.367 261.07ZM208.583 265.459L209.893 265.612C210.168 265.644 210.413 265.801 210.556 266.037C210.699 266.273 210.724 266.561 210.624 266.818L210.361 267.494C210.22 267.857 209.857 268.087 209.466 268.061L208.122 267.971C207.661 267.899 207.277 267.584 207.117 267.149C206.957 266.713 207.046 266.226 207.35 265.875C207.655 265.524 208.126 265.365 208.583 265.459ZM124.993 285.615L123.931 286C122.582 288.961 123.561 292.353 125.305 294.297L128.342 293.766C128.342 293.766 139.998 294.292 142.098 293.135C144.197 291.977 142.887 290.863 142.887 290.863C142.887 290.863 146.267 289.77 144.821 287.889C144.821 287.889 147.807 287.236 146.82 284.802C146.82 284.802 156.849 283.994 156.369 282.182C155.889 280.37 136.203 281.842 136.203 281.842C136.203 281.842 142.475 275.529 140.232 273.63C137.747 276.035 134.872 278.008 131.729 279.465C126.515 281.879 124.993 285.615 124.993 285.615Z" fill="#F7B17D"/>
<path d="M142.395 284.686C142.395 284.63 142.418 284.575 142.458 284.536C142.498 284.496 142.552 284.473 142.609 284.473H146.337C146.455 284.473 146.551 284.569 146.551 284.686C146.551 284.804 146.455 284.899 146.337 284.899H142.609C142.552 284.899 142.498 284.877 142.458 284.837C142.418 284.797 142.395 284.743 142.395 284.686Z" fill="#030F1C"/>
<path d="M139.25 287.857C139.25 287.801 139.272 287.746 139.313 287.706C139.353 287.666 139.407 287.644 139.464 287.644H144.356C144.474 287.644 144.57 287.739 144.57 287.857C144.57 287.975 144.474 288.07 144.356 288.07H139.464C139.407 288.07 139.353 288.048 139.313 288.008C139.272 287.968 139.25 287.914 139.25 287.857Z" fill="#030F1C"/>
<path d="M139.034 290.601H142.321C142.439 290.601 142.535 290.696 142.535 290.814C142.535 290.931 142.439 291.027 142.321 291.027H139.034C138.916 291.027 138.82 290.931 138.82 290.814C138.82 290.696 138.916 290.601 139.034 290.601Z" fill="#030F1C"/>
<path d="M283.3 231.194C282.348 226.93 284.895 222.666 289.1 221.481C284.836 222.432 280.571 219.885 279.386 215.68C280.337 219.944 277.791 224.209 273.586 225.394C277.85 224.443 282.114 226.989 283.3 231.194Z" fill="white"/>
<path d="M63.5945 254.357C64.8626 251.335 68.2705 249.831 71.3573 250.931C68.3359 249.663 66.8318 246.255 67.9313 243.168C66.6632 246.189 63.2552 247.693 60.1684 246.594C63.1898 247.862 64.6939 251.27 63.5945 254.357Z" fill="white"/>
<path d="M97.4808 184.511C96.6296 181.347 98.3992 178.069 101.512 177.044C98.3475 177.896 95.0695 176.126 94.0451 173.014C94.8962 176.178 93.1266 179.456 90.0141 180.48C93.1784 179.629 96.4563 181.399 97.4808 184.511Z" fill="white"/>
<path d="M208.226 223.502C207.517 220.865 208.992 218.133 211.586 217.279C208.949 217.989 206.217 216.514 205.363 213.92C206.073 216.557 204.598 219.289 202.004 220.142C204.641 219.433 207.373 220.908 208.226 223.502Z" fill="#FCC92C"/>
<path d="M200.749 318.215C201.6 315.051 199.83 311.773 196.718 310.749C199.882 311.6 203.16 309.83 204.184 306.718C203.333 309.882 205.103 313.16 208.215 314.184C205.051 313.333 201.773 315.103 200.749 318.215Z" fill="white"/>
<path d="M165.791 277.013C166.5 274.376 165.025 271.644 162.431 270.791C165.068 271.5 167.8 270.025 168.654 267.431C167.944 270.068 169.419 272.8 172.013 273.654C169.376 272.944 166.644 274.419 165.791 277.013Z" fill="#FCC92C"/>
</g>
<defs>
<filter id="filter0_i_5_4986" x="186" y="275" width="45.6192" height="68.397" filterUnits="userSpaceOnUse" color-interpolation-filters="sRGB">
<feFlood flood-opacity="0" result="BackgroundImageFix"/>
<feBlend mode="normal" in="SourceGraphic" in2="BackgroundImageFix" result="shape"/>
<feColorMatrix in="SourceAlpha" type="matrix" values="0 0 0 0 0 0 0 0 0 0 0 0 0 0 0 0 0 0 127 0" result="hardAlpha"/>
<feOffset dy="-3"/>
<feGaussianBlur stdDeviation="1.5"/>
<feComposite in2="hardAlpha" operator="arithmetic" k2="-1" k3="1"/>
<feColorMatrix type="matrix" values="0 0 0 0 0.825 0 0 0 0 0.154687 0 0 0 0 0.190342 0 0 0 1 0"/>
<feBlend mode="normal" in2="shape" result="effect1_innerShadow_5_4986"/>
</filter>
</defs>
</svg>
