<svg width="61" height="61" viewBox="0 0 61 61" fill="none" xmlns="http://www.w3.org/2000/svg">
<path opacity="0.4" d="M30.5 55.5C44.3071 55.5 55.5 44.3071 55.5 30.5C55.5 16.6929 44.3071 5.5 30.5 5.5C16.6929 5.5 5.5 16.6929 5.5 30.5C5.5 44.3071 16.6929 55.5 30.5 55.5Z" fill="#2DB986"/>
<path d="M26.9501 39.45C26.4501 39.45 25.9751 39.25 25.6251 38.9L18.5501 31.825C17.8251 31.1 17.8251 29.9 18.5501 29.175C19.2751 28.45 20.4751 28.45 21.2001 29.175L26.9501 34.925L39.8001 22.075C40.5251 21.35 41.7251 21.35 42.4501 22.075C43.1751 22.8 43.1751 24 42.4501 24.725L28.2751 38.9C27.9251 39.25 27.4501 39.45 26.9501 39.45Z" fill="#2DB986"/>
</svg>
