<svg width="25" height="24" viewBox="0 0 25 24" fill="none" xmlns="http://www.w3.org/2000/svg">
<path d="M18.75 18.86H17.99C17.19 18.86 16.43 19.17 15.87 19.73L14.16 21.42C13.38 22.19 12.11 22.19 11.33 21.42L9.62 19.73C9.06 19.17 8.29 18.86 7.5 18.86H6.75C5.09 18.86 3.75 17.53 3.75 15.89V4.97998C3.75 3.33998 5.09 2.01001 6.75 2.01001H18.75C20.41 2.01001 21.75 3.33998 21.75 4.97998V15.89C21.75 17.52 20.41 18.86 18.75 18.86Z" stroke="#C2C5C7" stroke-width="1.5" stroke-miterlimit="10" stroke-linecap="round" stroke-linejoin="round"/>
<path d="M12.7499 10C14.0368 10 15.08 8.95681 15.08 7.66998C15.08 6.38316 14.0368 5.34003 12.7499 5.34003C11.4631 5.34003 10.4199 6.38316 10.4199 7.66998C10.4199 8.95681 11.4631 10 12.7499 10Z" stroke="#C2C5C7" stroke-width="1.5" stroke-linecap="round" stroke-linejoin="round"/>
<path d="M16.75 15.66C16.75 13.86 14.96 12.4 12.75 12.4C10.54 12.4 8.75 13.86 8.75 15.66" stroke="#C2C5C7" stroke-width="1.5" stroke-linecap="round" stroke-linejoin="round"/>
</svg>
