<svg width="21" height="21" viewBox="0 0 21 21" fill="none" xmlns="http://www.w3.org/2000/svg">
<path d="M21 19.2163L15.336 13.5523C16.6971 11.9183 17.3758 9.82245 17.231 7.70075C17.0861 5.57905 16.1289 3.59486 14.5584 2.16096C12.9879 0.727051 10.925 -0.0461741 8.79893 0.00213463C6.67284 0.0504433 4.64723 0.916566 3.14347 2.42033C1.63971 3.92408 0.773588 5.9497 0.725279 8.07579C0.67697 10.2019 1.4502 12.2647 2.8841 13.8353C4.31801 15.4058 6.30219 16.363 8.42389 16.5078C10.5456 16.6526 12.6414 15.9739 14.2755 14.6128L19.9395 20.2768L21 19.2163ZM2.24996 8.27682C2.24996 6.9418 2.64585 5.63675 3.38754 4.52672C4.12924 3.41669 5.18345 2.55152 6.41685 2.04063C7.65025 1.52974 9.00745 1.39607 10.3168 1.65652C11.6262 1.91697 12.8289 2.55984 13.7729 3.50385C14.7169 4.44785 15.3598 5.65059 15.6203 6.95996C15.8807 8.26933 15.747 9.62653 15.2362 10.8599C14.7253 12.0933 13.8601 13.1475 12.7501 13.8892C11.64 14.6309 10.335 15.0268 8.99996 15.0268C7.21036 15.0248 5.49463 14.313 4.22919 13.0476C2.96375 11.7822 2.25195 10.0664 2.24996 8.27682Z" fill="#0C0F14"/>
</svg>
