<svg width="20" height="16" viewBox="0 0 20 16" fill="none" xmlns="http://www.w3.org/2000/svg">
<path d="M9.99993 12.5001C7.62962 12.5001 5.71087 10.6654 5.53431 8.34039L2.25618 5.80696C1.82524 6.34758 1.42868 6.91914 1.10868 7.54414C1.0372 7.68555 0.999949 7.84179 0.999949 8.00024C0.999949 8.15869 1.0372 8.31492 1.10868 8.45633C2.80337 11.7629 6.15837 14.0001 9.99993 14.0001C10.8409 14.0001 11.6521 13.8751 12.434 13.6732L10.8124 12.4185C10.5446 12.4703 10.2727 12.4976 9.99993 12.5001ZM19.8068 14.3157L16.3521 11.6457C17.4016 10.7613 18.2646 9.67705 18.8912 8.45602C18.9627 8.31461 18.9999 8.15838 18.9999 7.99993C18.9999 7.84147 18.9627 7.68524 18.8912 7.54383C17.1965 4.23727 13.8415 2.00008 9.99993 2.00008C8.39103 2.00203 6.80825 2.40707 5.39618 3.17821L1.42056 0.105395C1.36871 0.0650531 1.30943 0.0353228 1.24609 0.0179024C1.18276 0.000481963 1.11661 -0.00428704 1.05142 0.00386788C0.986243 0.0120228 0.923308 0.0329418 0.866214 0.0654295C0.809121 0.0979172 0.758989 0.141337 0.718682 0.193207L0.105245 0.982895C0.0238694 1.08758 -0.0125944 1.2203 0.00387316 1.35186C0.0203407 1.48342 0.088391 1.60306 0.193057 1.68446L18.5793 15.8948C18.6312 15.9351 18.6904 15.9648 18.7538 15.9823C18.8171 15.9997 18.8833 16.0045 18.9484 15.9963C19.0136 15.9881 19.0766 15.9672 19.1337 15.9347C19.1907 15.9022 19.2409 15.8588 19.2812 15.807L19.8949 15.0173C19.9763 14.9125 20.0127 14.7798 19.9962 14.6482C19.9796 14.5167 19.9115 14.3971 19.8068 14.3157ZM14.0656 9.87821L12.8374 8.92883C12.9409 8.62992 12.9957 8.31636 12.9999 8.00008C13.006 7.53704 12.9034 7.07902 12.7004 6.66281C12.4974 6.24661 12.1996 5.88382 11.8309 5.60359C11.4623 5.32336 11.033 5.13349 10.5776 5.04925C10.1223 4.96501 9.65352 4.98873 9.20899 5.11852C9.39744 5.37386 9.49937 5.68273 9.49993 6.00008C9.49527 6.10569 9.47913 6.21047 9.45181 6.31258L7.15149 4.53477C7.95055 3.86702 8.9586 3.50085 9.99993 3.50008C10.591 3.49975 11.1763 3.61592 11.7224 3.84195C12.2685 4.06798 12.7647 4.39944 13.1826 4.81737C13.6006 5.2353 13.932 5.7315 14.1581 6.27762C14.3841 6.82373 14.5003 7.40904 14.4999 8.00008C14.4999 8.67602 14.3346 9.30602 14.0656 9.87852V9.87821Z" fill="#888F9D"/>
</svg>
